<?xml version="1.0" encoding="utf-8"?>
<!-- Generator: Adobe Illustrator 16.0.0, SVG Export Plug-In . SVG Version: 6.00 Build 0)  -->
<!DOCTYPE svg PUBLIC "-//W3C//DTD SVG 1.1//EN" "http://www.w3.org/Graphics/SVG/1.1/DTD/svg11.dtd">
<svg version="1.1" id="Layer_1" xmlns="http://www.w3.org/2000/svg" xmlns:xlink="http://www.w3.org/1999/xlink" x="0px" y="0px"
	 width="24px" height="24px" viewBox="0 0 24 24" enable-background="new 0 0 24 24" xml:space="preserve">
<g>
	<g>
		<path fill="#010101" d="M20.039,8.529c-2.17,0-3.93,1.759-3.93,3.929s1.76,3.929,3.93,3.929s3.928-1.759,3.928-3.929
			S22.209,8.529,20.039,8.529z M20.039,15.52c-1.691,0-3.063-1.37-3.063-3.062s1.371-3.062,3.063-3.062s3.061,1.37,3.061,3.062
			S21.73,15.52,20.039,15.52z M12.469,12.47c1.631-1.278,2.684-3.262,2.684-5.49c0-3.849-3.131-6.98-6.979-6.98
			C4.328,0,1.195,3.131,1.195,6.979c0,2.24,1.064,4.231,2.711,5.509c-2.289,1.25-3.873,3.741-3.873,6.108V24h16.344v-5.402
			C16.377,16.218,14.775,13.714,12.469,12.47z M12.564,6.829c-0.131,1.537-3.248,1.537-3.379,0
			C9.057,5.329,12.434,5.281,12.564,6.829z M3.746,4.188c0.693-0.97,1.289-1.635,1.727-2.07C5.961,1.635,6.1,1.59,6.1,1.59
			s0.252,0.101,0.299,0.151C6.766,2.16,8.217,3.283,9.846,4.444c0.299,0.213,0.604,0.426,0.906,0.638
			C9.77,5.121,8.826,5.625,8.613,6.592c-0.24,0-0.48,0-0.721,0c-0.541-1.874-3.951-1.871-4.48,0.01
			c-0.387,0.001-0.773,0.001-1.16,0.001c-0.008,0-0.014,0.005-0.023,0.005C2.768,5.65,3.279,4.847,3.746,4.188z M7.344,6.939
			c-0.133,1.537-3.248,1.537-3.381,0C3.834,5.44,7.211,5.393,7.344,6.939z M2.207,7.213c0.016,0.003,0.027,0.01,0.045,0.01
			c0.371-0.001,0.742-0.001,1.113-0.001c0.141,0.984,1.449,1.435,2.287,1.473c0.986,0.044,2.012-0.523,2.256-1.482
			c0.229,0,0.457,0,0.688,0c0.211,0.916,1.469,1.335,2.279,1.371c0.955,0.043,1.951-0.485,2.232-1.389c0.299,0,0.598,0,0.895,0
			c0.047,0.026,0.092,0.053,0.137,0.077c-0.154,3.161-2.768,5.688-5.965,5.688C4.957,12.959,2.332,10.401,2.207,7.213z
			 M8.172,23.764l-0.008-0.013l-0.012,0.013l0.006-0.02l-5.09-5.527l1.963-1.929l-3.063-0.896l2.24-2.676
			c0.959,0.665,2.092,1.096,3.314,1.209l-0.654,0.793l0.996,1.16c0,0-0.789,0.904-1.041,4.979c-0.061,0.937,0.598,1.322,1.355,2.896
			L8.172,23.764z M11.434,16.425l1.824,1.792L8.514,23.37l-0.285,0.329c0.205-0.303,1.352-2.034,1.297-2.889
			c-0.252-4.074-1.092-4.933-1.092-4.933l0.998-1.16l-0.656-0.79c1.236-0.105,2.381-0.533,3.35-1.201l2.232,2.664l-2.846,0.834
			l-0.195,0.063L11.434,16.425z M19.944,9.908c-0.521,0-0.952,0.146-1.224,0.299l0.249,0.799c0.19-0.133,0.483-0.221,0.725-0.221
			c0.366,0.008,0.535,0.184,0.535,0.439c0,0.242-0.191,0.482-0.426,0.768c-0.329,0.391-0.453,0.768-0.432,1.143l0.008,0.189h0.974
			v-0.131c-0.007-0.33,0.109-0.615,0.372-0.914c0.278-0.309,0.63-0.674,0.63-1.23C21.355,10.441,20.91,9.908,19.944,9.908z
			 M19.841,13.676c-0.381,0-0.65,0.271-0.65,0.668c0,0.379,0.263,0.664,0.65,0.664c0.402,0,0.658-0.285,0.658-0.664
			C20.492,13.947,20.235,13.676,19.841,13.676z"/>
	</g>
</g>
</svg>
